<svg width="1080" height="1080" viewBox="0 0 1080 1080" fill="none" xmlns="http://www.w3.org/2000/svg">
<g clip-path="url(#clip0_57_657)">
<rect width="1080" height="1080" rx="25" fill="white"/>
<rect width="1080" height="1080" fill="#C4C4C4" style="mix-blend-mode:plus-darker"/>
<path d="M0 0H1080V1079L539.5 1080L0 1079V0Z" fill="#7300CD" fill-opacity="0.25"/>
<rect x="1030" y="17" width="100" height="242" fill="#7300CD"/>
<path d="M1066.35 216.723C1066.35 221.166 1063.07 225.316 1058.13 225.316C1053.47 225.316 1049.89 221.547 1049.89 216.645C1049.92 214.613 1050.8 212.436 1052.27 210.824L1055.36 213.227C1054.48 214.193 1053.9 215.473 1053.9 216.635C1053.9 219.057 1055.75 221.078 1058.16 221.078C1060.6 221.078 1062.4 218.969 1062.4 216.723C1062.4 215.404 1061.77 214.223 1060.86 213.207L1064.04 210.824C1065.4 212.328 1066.35 214.33 1066.35 216.723ZM1066.4 197.781C1066.4 202.674 1062.84 206.414 1058.15 206.414C1053.42 206.414 1049.84 202.664 1049.84 197.771C1049.84 192.879 1053.42 189.129 1058.15 189.129C1062.84 189.129 1066.4 192.879 1066.4 197.781ZM1062.41 197.771C1062.41 195.271 1060.54 193.357 1058.12 193.357C1055.69 193.357 1053.81 195.271 1053.81 197.771C1053.81 200.271 1055.69 202.186 1058.12 202.186C1060.54 202.186 1062.41 200.271 1062.41 197.771ZM1050.26 177.941C1050.24 172.59 1053.23 169.318 1058.15 169.318C1063.03 169.318 1066 172.59 1066 177.941V183.078H1050.27L1050.26 177.941ZM1062.06 178.01C1062.06 175.217 1060.58 173.508 1058.14 173.508C1055.67 173.508 1054.16 175.227 1054.16 178.049V179.006H1062.06V178.01ZM1054.14 153.053V159.127H1056.34V154.127H1059.83V159.127H1062.08V153.053H1066V163.258H1050.26V153.053H1054.14ZM1066 133.418V138.311L1059.16 142.52H1066V146.699L1050.26 146.719V140.742C1050.26 137.344 1052.55 134.912 1055.38 134.912C1057.34 134.912 1058.98 136.094 1059.68 137.637L1066 133.418ZM1054.02 142.539H1057.17L1057.18 140.83C1057.19 139.941 1056.57 139.131 1055.6 139.131C1054.62 139.131 1054.02 139.951 1054.02 140.83V142.539ZM1066.21 123.002C1066.21 125.59 1065.07 127.943 1063.33 128.734L1060.85 126.205C1061.82 125.551 1062.41 124.33 1062.41 123.012C1062.41 122.123 1062.08 121.254 1061.44 121.254C1060.63 121.254 1059.92 122.865 1059.23 124.408C1058.37 126.4 1057.06 128.109 1054.69 128.109C1051.97 128.109 1050.02 125.521 1050.02 122.533C1050.02 120.131 1051.16 118.256 1052.71 117.641L1055.03 120.053C1054.2 120.521 1053.84 121.732 1053.84 122.484C1053.84 123.344 1054.28 123.959 1054.82 123.959C1055.54 123.959 1055.78 122.846 1056.49 121.146C1057.52 118.686 1059.03 117.055 1061.35 117.055C1064.35 117.055 1066.21 119.848 1066.21 123.002ZM1066.56 108.895C1066.56 110.32 1065.47 111.482 1064.12 111.482C1062.81 111.482 1061.7 110.301 1061.7 108.895C1061.7 107.498 1062.82 106.316 1064.12 106.316C1065.45 106.316 1066.56 107.488 1066.56 108.895ZM1050.26 94.7773C1050.24 89.4258 1053.23 86.1543 1058.15 86.1543C1063.03 86.1543 1066 89.4258 1066 94.7773V99.9141H1050.27L1050.26 94.7773ZM1062.06 94.8457C1062.06 92.0527 1060.58 90.3438 1058.14 90.3438C1055.67 90.3438 1054.16 92.0625 1054.16 94.8848V95.8418H1062.06V94.8457ZM1066 78.1602H1059.2L1050.26 83.0137V78.2773L1054.82 76.0801L1050.26 73.8926V69.1465L1059.2 74.0098H1066V78.1602ZM1066 63.5742H1050.26V57.627C1050.26 54.3848 1052.7 51.6797 1055.78 51.6797C1058.81 51.6797 1061.36 54.3262 1061.36 57.627V59.3945H1066V63.5742ZM1057.51 57.627C1057.52 56.5039 1056.76 55.7129 1055.79 55.7129C1054.84 55.7129 1054.12 56.5137 1054.12 57.627V59.3945H1057.5L1057.51 57.627Z" fill="white"/>
</g>
<defs>
<clipPath id="clip0_57_657">
<rect width="1080" height="1080" rx="25" fill="white"/>
</clipPath>
</defs>
</svg>
