<svg width="50" height="50" viewBox="0 0 50 50" fill="none" xmlns="http://www.w3.org/2000/svg">
<path d="M33.317 16.1556C31.7873 15.4537 30.147 14.9366 28.4319 14.6404C28.4007 14.6347 28.3695 14.649 28.3534 14.6775C28.1424 15.0528 27.9087 15.5423 27.7451 15.927C25.9004 15.6508 24.0652 15.6508 22.2583 15.927C22.0946 15.5337 21.8525 15.0528 21.6406 14.6775C21.6245 14.6499 21.5933 14.6356 21.5621 14.6404C19.8479 14.9356 18.2076 15.4527 16.6769 16.1556C16.6637 16.1613 16.6523 16.1708 16.6448 16.1832C13.5334 20.8316 12.681 25.3657 13.0992 29.8436C13.1011 29.8655 13.1134 29.8864 13.1304 29.8997C15.1832 31.4073 17.1717 32.3225 19.1233 32.9291C19.1545 32.9386 19.1876 32.9272 19.2075 32.9015C19.6691 32.2711 20.0806 31.6063 20.4335 30.9073C20.4543 30.8664 20.4344 30.8178 20.3919 30.8016C19.7391 30.554 19.1176 30.2521 18.5197 29.9093C18.4724 29.8816 18.4687 29.814 18.5122 29.7816C18.638 29.6873 18.7638 29.5893 18.884 29.4902C18.9057 29.4721 18.936 29.4683 18.9615 29.4797C22.8893 31.273 27.1415 31.273 31.023 29.4797C31.0485 29.4674 31.0788 29.4712 31.1015 29.4893C31.2216 29.5883 31.3475 29.6873 31.4742 29.7816C31.5177 29.814 31.5149 29.8816 31.4676 29.9093C30.8697 30.2588 30.2482 30.554 29.5945 30.8006C29.552 30.8168 29.533 30.8664 29.5538 30.9073C29.9143 31.6054 30.3258 32.2701 30.7789 32.9005C30.7978 32.9272 30.8319 32.9386 30.8631 32.9291C32.8241 32.3225 34.8126 31.4073 36.8654 29.8997C36.8834 29.8864 36.8948 29.8664 36.8967 29.8445C37.3971 24.6676 36.0585 20.1706 33.3482 16.1841C33.3416 16.1708 33.3303 16.1613 33.317 16.1556ZM21.02 27.117C19.8375 27.117 18.8631 26.0313 18.8631 24.6981C18.8631 23.3648 19.8186 22.2791 21.02 22.2791C22.2309 22.2791 23.1958 23.3743 23.1769 24.6981C23.1769 26.0313 22.2214 27.117 21.02 27.117ZM28.9947 27.117C27.8123 27.117 26.8379 26.0313 26.8379 24.6981C26.8379 23.3648 27.7933 22.2791 28.9947 22.2791C30.2056 22.2791 31.1705 23.3743 31.1516 24.6981C31.1516 26.0313 30.2056 27.117 28.9947 27.117Z" fill="white"/>
<circle cx="25" cy="25" r="24.5" stroke="#E8E7EA"/>
</svg>
