<svg width="393" height="852" viewBox="0 0 393 852" fill="none" xmlns="http://www.w3.org/2000/svg">
<g clip-path="url(#clip0_233_1593)">
<rect width="393" height="852" fill="#D8D8D8"/>
<g filter="url(#filter0_bd_233_1593)">
<rect width="393" height="852" fill="#1E1D1D" shape-rendering="crispEdges"/>
<rect x="-0.5" y="-0.5" width="394" height="853" stroke="url(#paint0_linear_233_1593)" stroke-opacity="0.4" shape-rendering="crispEdges"/>
</g>
<path fill-rule="evenodd" clip-rule="evenodd" d="M330.066 585.935C329.138 585.649 328.618 584.664 328.905 583.737L336.856 557.996C336.862 557.973 336.869 557.949 336.876 557.925L337.225 556.797C337.234 556.768 337.243 556.74 337.253 556.712C337.558 555.814 338.525 555.317 339.437 555.598L340.566 555.947C340.688 555.985 340.802 556.034 340.909 556.094L366.511 564.003C367.439 564.289 367.958 565.274 367.672 566.202L367.323 567.33C367.037 568.258 366.052 568.778 365.124 568.492L340.848 560.992L333.394 585.123C333.107 586.051 332.122 586.571 331.195 586.284L330.066 585.935ZM393.48 604.832C393.193 605.76 392.209 606.28 391.281 605.993L390.152 605.644C389.224 605.358 388.705 604.373 388.991 603.445L396.445 579.315L372.169 571.816C371.241 571.529 370.721 570.544 371.008 569.617L371.356 568.488C371.643 567.56 372.627 567.04 373.555 567.327L399.157 575.235C399.279 575.246 399.402 575.27 399.523 575.307L400.652 575.656C401.564 575.938 402.082 576.894 401.827 577.807C401.82 577.836 401.812 577.864 401.803 577.893L401.454 579.022C401.447 579.045 401.439 579.069 401.431 579.092L393.48 604.832ZM364.112 571.983C363.87 571.998 363.628 572.063 363.401 572.183L345.738 581.509L345.719 581.519L337.757 585.723C337.14 586.049 336.797 586.691 336.821 587.345C336.723 587.553 336.665 587.783 336.655 588.027L335.829 609.881C335.725 610.553 336.018 611.254 336.631 611.639L355.333 623.401C355.477 623.491 355.629 623.558 355.784 623.603C356.284 624.322 357.254 624.572 358.048 624.153L375.711 614.827L375.73 614.816L383.692 610.613C384.423 610.226 384.77 609.397 384.576 608.629L385.434 585.96C385.453 585.443 385.247 584.97 384.904 584.635C384.781 584.476 384.629 584.335 384.448 584.222L365.369 572.223C364.98 571.978 364.531 571.905 364.112 571.983ZM354.212 582.348L351.064 584.01L353.455 601.384L367.322 613.943L369.761 612.655L367.211 594.121L354.212 582.348ZM374.182 610.321L379.926 607.289L380.678 587.4L364.232 577.057L358.633 580.014L370.846 591.075C371.108 591.312 371.282 591.61 371.365 591.927C371.581 592.176 371.728 592.487 371.777 592.837L374.182 610.321ZM362.901 616.278L349.665 604.29C349.442 604.13 349.257 603.919 349.128 603.67C348.995 603.423 348.924 603.15 348.917 602.875L346.643 586.344L341.314 589.158L340.58 608.572L357.427 619.168L362.901 616.278ZM327.87 592.026C328.157 591.098 329.141 590.579 330.069 590.865L331.198 591.214C332.126 591.501 332.646 592.485 332.359 593.413L324.905 617.544L349.182 625.043C350.109 625.329 350.629 626.314 350.343 627.242L349.994 628.371C349.707 629.298 348.723 629.818 347.795 629.532L322.193 621.623C322.071 621.612 321.949 621.589 321.827 621.551L320.698 621.202C319.787 620.921 319.269 619.966 319.522 619.053C319.53 619.024 319.538 618.995 319.547 618.965L319.896 617.837C319.903 617.813 319.911 617.789 319.919 617.765L327.87 592.026ZM391.285 610.923C392.212 611.21 392.732 612.194 392.446 613.122L384.494 638.862C384.488 638.886 384.481 638.909 384.474 638.933L384.125 640.062C384.117 640.09 384.107 640.119 384.097 640.146C383.792 641.044 382.825 641.542 381.913 641.26L380.784 640.911C380.663 640.874 380.548 640.824 380.441 640.764L354.839 632.856C353.912 632.569 353.392 631.585 353.678 630.657L354.027 629.528C354.314 628.6 355.298 628.08 356.226 628.367L380.503 635.866L387.957 611.735C388.243 610.807 389.228 610.288 390.156 610.574L391.285 610.923Z" fill="white" fill-opacity="0.3"/>
<path fill-rule="evenodd" clip-rule="evenodd" d="M55.3177 781.354C54.8669 780.299 55.3566 779.078 56.4115 778.627L85.6796 766.118C85.7054 766.106 85.7315 766.094 85.758 766.083L87.0415 765.534C87.0732 765.521 87.105 765.508 87.1369 765.496C88.1796 765.083 89.3679 765.574 89.8114 766.611L90.36 767.895C90.4192 768.033 90.4621 768.175 90.4898 768.317L102.931 797.426C103.382 798.481 102.892 799.702 101.837 800.153L100.554 800.701C99.4989 801.152 98.2781 800.663 97.8273 799.608L86.0299 772.005L58.5929 783.731C57.5379 784.182 56.3172 783.692 55.8663 782.637L55.3177 781.354ZM86.758 852.928C85.703 853.379 84.4823 852.889 84.0314 851.834L83.4828 850.55C83.032 849.495 83.5217 848.275 84.5766 847.824L112.014 836.097L100.216 808.494C99.7654 807.44 100.255 806.219 101.31 805.768L102.594 805.219C103.648 804.768 104.869 805.258 105.32 806.313L117.762 835.423C117.845 835.541 117.917 835.67 117.977 835.808L118.525 837.091C118.968 838.129 118.502 839.327 117.484 839.795C117.453 839.81 117.421 839.824 117.389 839.838L116.106 840.386C116.079 840.398 116.053 840.409 116.026 840.419L86.758 852.928ZM93.9087 801.364C93.7107 801.158 93.4667 800.99 93.1842 800.876L71.283 792.091L71.2625 792.082L61.3875 788.121C60.6219 787.814 59.7815 787.995 59.2109 788.517C58.9489 788.587 58.6965 788.711 58.4696 788.889L38.1481 804.847C37.4636 805.267 37.057 806.067 37.178 806.912L40.8745 832.75C40.903 832.949 40.9587 833.137 41.0374 833.312C40.7712 834.312 41.2874 835.376 42.2723 835.772L52.1468 839.733L52.1679 839.741L74.0691 848.527C74.9766 848.891 75.9891 848.569 76.5329 847.807L97.6104 831.256C98.0911 830.878 98.3603 830.331 98.3998 829.766C98.4493 829.533 98.4594 829.289 98.4238 829.04L94.6527 802.68C94.5757 802.142 94.2992 801.682 93.9087 801.364ZM77.0032 800.366L73.1008 798.8L59.2745 814.233L58.5577 836.324L61.5821 837.537L76.3313 821.075L77.0032 800.366ZM67.0641 839.737L74.1855 842.593L92.6783 828.071L89.4276 805.35L82.4853 802.565L81.854 822.022C81.8405 822.439 81.705 822.823 81.4829 823.141C81.4234 823.525 81.2558 823.896 80.9773 824.207L67.0641 839.737ZM53.0757 834.125L53.7598 813.04C53.7336 812.716 53.7828 812.387 53.909 812.081C54.0295 811.772 54.2217 811.499 54.4645 811.283L67.6188 796.601L61.011 793.95L42.9587 808.126L46.2887 831.402L53.0757 834.125ZM48.1524 784.031C49.2074 783.58 50.4281 784.07 50.879 785.125L51.4276 786.408C51.8784 787.463 51.3887 788.684 50.3338 789.135L22.8968 800.861L34.6941 828.464C35.145 829.519 34.6553 830.74 33.6004 831.191L32.3169 831.739C31.2619 832.19 30.0412 831.7 29.5903 830.645L17.1489 801.536C17.0654 801.418 16.993 801.289 16.9339 801.151L16.3853 799.867C15.9419 798.83 16.4081 797.632 17.4269 797.164C17.4577 797.149 17.4891 797.134 17.521 797.121L18.8045 796.572C18.8312 796.561 18.8579 796.55 18.8847 796.54L48.1524 784.031ZM79.5925 855.605C80.0434 856.66 79.5537 857.88 78.4987 858.331L49.2306 870.84C49.2049 870.853 49.1788 870.864 49.1523 870.876L47.8688 871.424C47.8561 871.43 47.8434 871.435 47.8307 871.44C47.8117 871.448 47.7925 871.455 47.7734 871.462C46.7306 871.876 45.5423 871.385 45.0988 870.347L44.5502 869.064C44.4911 868.925 44.4481 868.784 44.4205 868.642L31.9791 839.532C31.5283 838.477 32.018 837.257 33.0729 836.806L34.3564 836.257C35.4114 835.806 36.6321 836.296 37.083 837.351L48.8804 864.954L76.3174 853.227C77.3723 852.776 78.5931 853.266 79.0439 854.321L79.5925 855.605Z" fill="white" fill-opacity="0.3"/>
<path fill-rule="evenodd" clip-rule="evenodd" d="M16.4236 362.588C16.1347 361.884 16.4714 361.079 17.1756 360.79L36.7119 352.776C36.7295 352.768 36.7474 352.76 36.7655 352.752L37.6223 352.401C37.6441 352.392 37.6661 352.384 37.6881 352.376C38.3833 352.113 39.1656 352.45 39.4495 353.142L39.801 353.999C39.8389 354.092 39.866 354.186 39.8829 354.28L47.8544 373.712C48.1433 374.416 47.8066 375.221 47.1024 375.51L46.2456 375.862C45.5414 376.151 44.7363 375.814 44.4474 375.11L36.8885 356.684L18.5733 364.197C17.8691 364.486 17.064 364.149 16.7751 363.445L16.4236 362.588ZM36.5874 410.375C35.8832 410.664 35.0781 410.327 34.7892 409.623L34.4377 408.766C34.1488 408.062 34.4855 407.257 35.1898 406.968L53.5051 399.454L45.9462 381.028C45.6573 380.324 45.994 379.519 46.6982 379.23L47.555 378.879C48.2592 378.59 49.0643 378.926 49.3532 379.631L57.3249 399.063C57.3791 399.142 57.4258 399.228 57.4636 399.32L57.8151 400.177C58.0996 400.87 57.7774 401.662 57.0949 401.962C57.0752 401.971 57.0553 401.979 57.0351 401.988L56.1783 402.339C56.1687 402.343 56.159 402.347 56.1494 402.351L56.1265 402.359L36.5874 410.375ZM41.83 376.236C41.7008 376.098 41.5409 375.984 41.355 375.907L26.9109 369.866L26.8986 369.861L20.3848 367.137C19.88 366.926 19.3207 367.037 18.9372 367.378C18.7626 367.422 18.5939 367.502 18.4417 367.618L4.80556 378.007C4.34754 378.28 4.07017 378.806 4.14223 379.368L6.34412 396.545C6.36106 396.677 6.39622 396.803 6.44675 396.919C6.26042 397.58 6.59252 398.291 7.24212 398.563L21.6862 404.603L21.6983 404.608L28.2123 407.333C28.8107 407.583 29.4855 407.379 29.8536 406.879L43.997 396.103C44.3196 395.857 44.5035 395.497 44.5351 395.122C44.5701 394.968 44.5792 394.806 44.558 394.64L42.3117 377.117C42.2658 376.759 42.0864 376.451 41.83 376.236ZM30.6256 375.411L28.0518 374.335L18.73 384.438L18.0404 399.087L20.0348 399.921L29.9792 389.143L30.6256 375.411ZM23.6503 401.433L28.3471 403.397L40.7558 393.943L38.8195 378.838L34.241 376.923L33.6337 389.824C33.6207 390.101 33.5271 390.355 33.3766 390.564C33.3334 390.818 33.2186 391.062 33.0309 391.266L23.6503 401.433ZM14.425 397.575L15.0831 383.594C15.0689 383.378 15.1049 383.16 15.1918 382.958C15.2748 382.755 15.4046 382.576 15.5673 382.436L24.4363 372.823L20.0785 371L7.96536 380.23L9.94892 395.703L14.425 397.575ZM11.6442 364.295C12.3485 364.006 13.1535 364.343 13.4424 365.047L13.7939 365.904C14.0828 366.608 13.7461 367.413 13.0419 367.702L-5.27328 375.215L2.28558 393.641C2.57447 394.346 2.23778 395.151 1.53356 395.44L0.676759 395.791C-0.0274676 396.08 -0.832549 395.743 -1.12144 395.039L-9.09278 375.608C-9.14715 375.528 -9.19401 375.442 -9.23196 375.35L-9.58344 374.493C-9.86717 373.801 -9.54748 373.012 -8.86884 372.711C-8.84737 372.701 -8.82553 372.691 -8.80332 372.682L-7.94652 372.33C-7.92826 372.323 -7.90993 372.316 -7.89155 372.309L11.6442 364.295ZM31.808 412.081C32.0969 412.786 31.7602 413.591 31.056 413.88L11.5156 421.896L11.4935 421.906L11.4807 421.911L11.466 421.917L10.6092 422.269L10.5926 422.275L10.5699 422.284L10.5508 422.291C9.8537 422.559 9.06696 422.222 8.7821 421.527L8.43061 420.671C8.39266 420.578 8.36551 420.484 8.34856 420.389L0.37714 400.958C0.0882471 400.253 0.424939 399.448 1.12916 399.159L1.98596 398.808C2.69019 398.519 3.49527 398.856 3.78416 399.56L11.3431 417.986L29.6583 410.473C30.3625 410.184 31.1676 410.52 31.4565 411.225L31.808 412.081Z" fill="white" fill-opacity="0.3"/>
<path fill-rule="evenodd" clip-rule="evenodd" d="M308.473 213.759C307.949 213.625 307.634 213.092 307.768 212.568L311.493 198.036C311.496 198.023 311.499 198.01 311.502 197.997L311.666 197.36C311.67 197.345 311.674 197.329 311.679 197.314C311.823 196.805 312.348 196.502 312.863 196.634L313.501 196.797C313.569 196.815 313.635 196.839 313.696 196.87L328.148 200.575C328.672 200.709 328.987 201.242 328.853 201.766L328.69 202.403C328.556 202.927 328.022 203.243 327.498 203.109L313.794 199.595L310.302 213.217C310.168 213.741 309.634 214.057 309.11 213.923L308.473 213.759ZM344.252 222.551C344.118 223.075 343.585 223.391 343.061 223.256L342.424 223.093C341.9 222.959 341.584 222.425 341.718 221.901L345.21 208.28L331.506 204.767C330.982 204.632 330.666 204.099 330.801 203.575L330.964 202.938C331.098 202.414 331.632 202.098 332.156 202.233L346.607 205.937C346.675 205.94 346.745 205.95 346.814 205.967L347.451 206.131C347.966 206.263 348.28 206.781 348.163 207.296C348.159 207.312 348.156 207.328 348.152 207.344L347.988 207.981C347.985 207.994 347.981 208.008 347.977 208.021L344.252 222.551ZM327.029 205.078C326.896 205.093 326.763 205.135 326.64 205.208L317.069 210.873L317.056 210.881L312.745 213.433C312.41 213.631 312.237 213.997 312.268 214.36C312.219 214.478 312.193 214.608 312.195 214.744L312.327 226.92C312.287 227.297 312.469 227.679 312.82 227.876L323.54 233.911C323.622 233.957 323.708 233.99 323.796 234.011C324.094 234.398 324.64 234.511 325.07 234.256L334.641 228.591C334.649 228.586 334.656 228.582 334.664 228.577L338.965 226.031C339.362 225.796 339.532 225.325 339.403 224.904L339.266 212.274C339.263 211.985 339.136 211.728 338.936 211.551C338.863 211.466 338.774 211.392 338.671 211.333L327.736 205.177C327.512 205.051 327.261 205.023 327.029 205.078ZM321.804 211.11L320.099 212.12L321.899 221.718L329.951 228.326L331.273 227.544L329.353 217.306L321.804 211.11ZM333.668 226.126L336.781 224.284L336.66 213.203L327.234 207.897L324.2 209.692L331.292 215.513C331.444 215.638 331.549 215.799 331.604 215.973C331.73 216.106 331.821 216.275 331.857 216.468L333.668 226.126ZM327.556 229.745L319.87 223.437C319.742 223.353 319.633 223.24 319.554 223.105C319.474 222.972 319.427 222.822 319.416 222.669L317.704 213.538L314.816 215.247L314.933 226.064L324.59 231.5L327.556 229.745ZM307.417 217.206C307.551 216.682 308.085 216.367 308.609 216.501L309.246 216.664C309.77 216.798 310.085 217.332 309.951 217.856L306.459 231.478L320.163 234.991C320.687 235.125 321.003 235.659 320.869 236.182L320.705 236.82C320.571 237.343 320.038 237.659 319.514 237.525L305.061 233.82C304.993 233.817 304.924 233.807 304.856 233.79L304.219 233.626C303.704 233.494 303.39 232.977 303.507 232.462C303.51 232.446 303.514 232.43 303.518 232.414L303.681 231.776C303.685 231.763 303.688 231.75 303.692 231.737L307.417 217.206ZM343.196 225.998C343.72 226.132 344.036 226.666 343.901 227.189L340.177 241.719C340.174 241.733 340.171 241.746 340.167 241.76L340.004 242.397C340 242.41 339.997 242.424 339.993 242.437L339.99 242.445C339.845 242.953 339.321 243.255 338.806 243.123L338.169 242.96C338.1 242.942 338.035 242.918 337.974 242.887L323.522 239.182C322.998 239.048 322.682 238.515 322.816 237.991L322.98 237.354C323.114 236.83 323.647 236.514 324.171 236.649L337.875 240.162L341.367 226.54C341.502 226.016 342.035 225.7 342.559 225.834L343.196 225.998Z" fill="white" fill-opacity="0.3"/>
<path fill-rule="evenodd" clip-rule="evenodd" d="M67.3893 80.2755C67.3527 80.0249 67.5262 79.792 67.7769 79.7555L74.7294 78.7406C74.7359 78.7394 74.7424 78.7383 74.749 78.7373L75.054 78.6928C75.0621 78.6916 75.0701 78.6907 75.0782 78.6899C75.3234 78.6616 75.5483 78.8333 75.5843 79.0793L75.6288 79.3842C75.6336 79.4172 75.6347 79.4498 75.6326 79.4817L76.6421 86.3974C76.6787 86.648 76.5051 86.8808 76.2545 86.9174L75.9496 86.9619C75.6989 86.9985 75.4661 86.825 75.4295 86.5743L74.4723 80.0165L67.9539 80.968C67.7032 81.0046 67.4704 80.8311 67.4338 80.5804L67.3893 80.2755ZM70.0527 97.3279C69.8021 97.3645 69.5693 97.191 69.5327 96.9404L69.4882 96.6354C69.4516 96.3848 69.6251 96.152 69.8758 96.1154L76.3941 95.1639L75.4369 88.6062C75.4003 88.3555 75.5738 88.1227 75.8244 88.0861L76.1294 88.0416C76.38 88.005 76.6129 88.1785 76.6494 88.4292L77.6588 95.3444C77.6701 95.3745 77.6783 95.4062 77.6831 95.4392L77.7276 95.7442C77.7634 95.9892 77.5983 96.2172 77.3567 96.2615C77.3479 96.2633 77.339 96.2649 77.3299 96.2662L77.025 96.3107C77.0179 96.3118 77.0108 96.3126 77.0037 96.3133L70.0527 97.3279ZM63.2381 85.2908L67.8923 83.2859L69.1525 84.225L65.5147 86.615C65.4519 86.6468 65.3964 86.693 65.3536 86.7507C65.3081 86.8097 65.2782 86.8784 65.2654 86.9502L63.9274 91.4112L62.6329 90.4465L63.2381 85.2908ZM64.973 92.1905L65.5497 92.6202L69.6283 89.9406L70.9424 85.5593L70.1978 85.0044L66.375 87.516L64.973 92.1905ZM71.988 86.3385L70.7534 90.4549C70.727 90.5431 70.6763 90.6175 70.6109 90.6729C70.5765 90.7514 70.5197 90.8212 70.4427 90.8718L66.5953 93.3995L67.9537 94.4119L72.7214 92.3582L73.3122 87.3254L71.988 86.3385ZM72.4795 85.1762L72.4924 85.1861L74.3668 86.5831C74.4204 86.623 74.4627 86.6723 74.4933 86.7271C74.559 86.8172 74.5923 86.9314 74.5782 87.0509L73.8928 92.8895C73.8864 92.9446 73.8704 92.9962 73.8468 93.043C73.8064 93.1615 73.718 93.2631 73.594 93.3165L68.1603 95.6572C68.0011 95.7893 67.7667 95.8008 67.5935 95.6717L63.4161 92.5585L63.4117 92.5552L61.5287 91.1519C61.3408 91.0119 61.2909 90.7554 61.4043 90.557C61.3973 90.5153 61.3961 90.4719 61.4013 90.4279L62.0731 84.7046C62.0952 84.5167 62.2279 84.3688 62.3984 84.3182L67.636 82.062C67.6944 82.0369 67.7552 82.0248 67.815 82.0245C67.9663 81.9453 68.156 81.9541 68.3021 82.063L72.4795 85.1762ZM65.7088 80.4418C65.9594 80.4052 66.1923 80.5787 66.2289 80.8294L66.2734 81.1343C66.31 81.3849 66.1364 81.6178 65.8858 81.6543L59.3673 82.6058L60.3246 89.1636C60.3611 89.4142 60.1876 89.647 59.937 89.6836L59.6321 89.7281C59.3814 89.7647 59.1486 89.5912 59.112 89.3406L58.1025 82.4248C58.0914 82.3949 58.0832 82.3633 58.0784 82.3305L58.0339 82.0256C57.9982 81.7809 58.1627 81.5531 58.4038 81.5084C58.4129 81.5065 58.4222 81.5049 58.4315 81.5035L58.7365 81.459C58.7437 81.458 58.7509 81.4571 58.758 81.4564L65.7088 80.4418ZM68.3723 97.4942C68.4088 97.7448 68.2353 97.9777 67.9847 98.0143L61.0259 99.03L61.0125 99.0322L60.7076 99.0767L60.6936 99.0785C60.4444 99.1128 60.2137 98.9398 60.1773 98.6904L60.1328 98.3855C60.128 98.3525 60.1268 98.3198 60.129 98.2879L59.1195 91.3721C59.0829 91.1215 59.2564 90.8887 59.5071 90.8521L59.812 90.8076C60.0626 90.771 60.2955 90.9445 60.332 91.1951L61.2893 97.7532L67.8077 96.8017C68.0583 96.7651 68.2912 96.9386 68.3277 97.1893L68.3723 97.4942Z" fill="white" fill-opacity="0.3"/>
</g>
<defs>
<filter id="filter0_bd_233_1593" x="-43" y="-43" width="479" height="938" filterUnits="userSpaceOnUse" color-interpolation-filters="sRGB">
<feFlood flood-opacity="0" result="BackgroundImageFix"/>
<feGaussianBlur in="BackgroundImageFix" stdDeviation="21"/>
<feComposite in2="SourceAlpha" operator="in" result="effect1_backgroundBlur_233_1593"/>
<feColorMatrix in="SourceAlpha" type="matrix" values="0 0 0 0 0 0 0 0 0 0 0 0 0 0 0 0 0 0 127 0" result="hardAlpha"/>
<feOffset dy="4"/>
<feGaussianBlur stdDeviation="2"/>
<feComposite in2="hardAlpha" operator="out"/>
<feColorMatrix type="matrix" values="0 0 0 0 0 0 0 0 0 0 0 0 0 0 0 0 0 0 0.25 0"/>
<feBlend mode="normal" in2="effect1_backgroundBlur_233_1593" result="effect2_dropShadow_233_1593"/>
<feBlend mode="normal" in="SourceGraphic" in2="effect2_dropShadow_233_1593" result="shape"/>
</filter>
<linearGradient id="paint0_linear_233_1593" x1="196.5" y1="0" x2="196.5" y2="852" gradientUnits="userSpaceOnUse">
<stop stop-color="#D0D0D0"/>
<stop offset="1" stop-opacity="0"/>
</linearGradient>
<clipPath id="clip0_233_1593">
<rect width="393" height="852" fill="white"/>
</clipPath>
</defs>
</svg>
