<svg width="21" height="21" viewBox="0 0 21 21" fill="none" xmlns="http://www.w3.org/2000/svg">
<path d="M4.8636 20.429V7.19266H0.467956V20.429H4.86405H4.8636ZM2.66669 5.38578C4.19922 5.38578 5.15333 4.36939 5.15333 3.09918C5.12464 1.80004 4.19922 0.812012 2.69584 0.812012C1.19142 0.812012 0.208862 1.80004 0.208862 3.09907C0.208862 4.36927 1.16262 5.38567 2.63789 5.38567H2.66635L2.66669 5.38578ZM7.29664 20.429H11.6919V13.038C11.6919 12.6429 11.7206 12.2468 11.8367 11.9647C12.1544 11.1739 12.8776 10.3554 14.0922 10.3554C15.6823 10.3554 16.3188 11.5691 16.3188 13.3487V20.429H20.714V12.8397C20.714 8.77422 18.5458 6.88235 15.6538 6.88235C13.2829 6.88235 12.2416 8.20871 11.663 9.1121H11.6923V7.19312H7.29687C7.35424 8.43485 7.29653 20.4294 7.29653 20.4294L7.29664 20.429Z" fill="white"/>
</svg>
