<svg width="50" height="50" viewBox="0 0 50 50" fill="none" xmlns="http://www.w3.org/2000/svg">
<path fill-rule="evenodd" clip-rule="evenodd" d="M25.0076 12.5535C18.1285 12.5535 12.5001 18.1868 12.5001 25.0721C12.5001 31.9573 18.1285 37.5907 25.0076 37.5907C31.8867 37.5907 37.5151 31.9573 37.5151 25.0721C37.5151 18.1868 31.9493 12.5535 25.0076 12.5535ZM30.7611 30.6429C30.5109 31.0184 30.0732 31.1436 29.6979 30.8932C26.7587 29.078 23.069 28.7025 18.6913 29.704C18.2536 29.8292 17.8783 29.5162 17.7533 29.1406C17.6282 28.7025 17.9409 28.3269 18.3161 28.2017C23.069 27.1377 27.1964 27.5758 30.4484 29.5788C30.8861 29.7666 30.9487 30.2673 30.7611 30.6429ZM32.262 27.2002C31.9493 27.6384 31.3864 27.8262 30.9487 27.5132C27.5717 25.4476 22.4436 24.8217 18.5037 26.0736C18.0034 26.1988 17.4406 25.9484 17.3155 25.4476C17.1904 24.9469 17.4406 24.3836 17.9409 24.2584C22.5061 22.8813 28.1345 23.5698 32.0118 25.9484C32.387 26.1362 32.5747 26.7621 32.262 27.2002ZM32.387 23.695C28.3846 21.3165 21.6931 21.0661 17.8783 22.2554C17.253 22.4432 16.6276 22.0676 16.44 21.5043C16.2524 20.8783 16.6276 20.2524 17.1904 20.0646C21.6306 18.7502 28.9475 19.0006 33.5753 21.7547C34.1381 22.0676 34.3257 22.8187 34.013 23.3821C33.7003 23.8202 32.9499 24.008 32.387 23.695Z" fill="white"/>
<circle cx="25" cy="25" r="24.5" stroke="#E8E7EA"/>
</svg>
