<svg width="50" height="50" viewBox="0 0 50 50" fill="none" xmlns="http://www.w3.org/2000/svg">
<circle cx="25" cy="25" r="24.5" stroke="#E8E7EA"/>
<path d="M13.2501 36.8431L15.0079 30.3071C13.5903 27.761 13.1399 24.7899 13.7394 21.939C14.3389 19.0882 15.9481 16.5487 18.2716 14.7867C20.5952 13.0247 23.4773 12.1584 26.389 12.3466C29.3008 12.5348 32.0469 13.765 34.1234 15.8115C36.1999 17.8579 37.4676 20.5833 37.6938 23.4876C37.92 26.3918 37.0896 29.2801 35.3549 31.6224C33.6202 33.9647 31.0976 35.604 28.25 36.2393C25.4024 36.8746 22.4208 36.4635 19.8523 35.0813L13.2501 36.8431ZM20.1707 32.6354L20.579 32.8773C22.4394 33.9781 24.6123 34.4337 26.7591 34.1729C28.9059 33.9122 30.906 32.9498 32.4477 31.4357C33.9894 29.9216 34.9862 27.9409 35.2826 25.8023C35.579 23.6636 35.1585 21.4871 34.0865 19.6119C33.0146 17.7368 31.3514 16.2683 29.3562 15.4354C27.361 14.6024 25.1458 14.4518 23.0559 15.007C20.966 15.5621 19.1187 16.7919 17.8019 18.5046C16.4852 20.2173 15.7729 22.3168 15.7761 24.4758C15.7744 26.266 16.2703 28.0216 17.2087 29.5471L17.4647 29.9685L16.482 33.6165L20.1707 32.6354Z" fill="white"/>
<path fill-rule="evenodd" clip-rule="evenodd" d="M30.0807 26.154C29.8414 25.9613 29.5611 25.8256 29.2613 25.7574C28.9615 25.6891 28.65 25.6901 28.3506 25.7602C27.9008 25.9467 27.6101 26.6515 27.3194 27.0038C27.2581 27.0883 27.1681 27.1475 27.0661 27.1704C26.9642 27.1933 26.8574 27.1783 26.7658 27.1282C25.1189 26.4842 23.7385 25.3033 22.8488 23.7773C22.7729 23.6821 22.7369 23.5611 22.7486 23.44C22.7602 23.3189 22.8184 23.207 22.911 23.1278C23.2352 22.8074 23.4732 22.4106 23.6031 21.974C23.6319 21.4925 23.5214 21.0128 23.2847 20.5922C23.1018 20.0026 22.7536 19.4775 22.2813 19.0791C22.0377 18.9697 21.7676 18.9331 21.5035 18.9735C21.2395 19.014 20.9929 19.1298 20.7934 19.3071C20.447 19.6055 20.172 19.9776 19.9888 20.3961C19.8055 20.8146 19.7186 21.2688 19.7345 21.7253C19.7356 21.9816 19.7681 22.2369 19.8314 22.4853C19.9921 23.0822 20.2392 23.6524 20.565 24.178C20.8 24.5806 21.0564 24.9704 21.3332 25.3456C22.2325 26.5782 23.363 27.6247 24.6619 28.4271C25.3137 28.8348 26.0104 29.1663 26.7381 29.4151C27.494 29.7572 28.3287 29.8885 29.1534 29.7951C29.6233 29.7241 30.0685 29.5389 30.4498 29.2558C30.8311 28.9726 31.1369 28.6003 31.3403 28.1715C31.4597 27.9124 31.496 27.6228 31.4441 27.3424C31.3195 26.7689 30.5513 26.4304 30.0807 26.154Z" fill="white"/>
</svg>
