<svg width="50" height="50" viewBox="0 0 50 50" fill="none" xmlns="http://www.w3.org/2000/svg">
<path d="M38.9058 18.1227C38.5793 16.8955 37.6136 15.9273 36.3849 15.5955C34.1633 15 25.2497 15 25.2497 15C25.2497 15 16.3406 15 14.1145 15.5955C12.8904 15.9227 11.9246 16.8909 11.5937 18.1227C10.9997 20.35 10.9997 25 10.9997 25C10.9997 25 10.9997 29.65 11.5937 31.8773C11.9201 33.1045 12.8858 34.0727 14.1145 34.4045C16.3406 35 25.2497 35 25.2497 35C25.2497 35 34.1633 35 36.3849 34.4045C37.6091 34.0773 38.5748 33.1091 38.9058 31.8773C39.4997 29.65 39.4997 25 39.4997 25C39.4997 25 39.4997 20.35 38.9058 18.1227Z" fill="white"/>
<path d="M22.4024 29.2864L29.8063 25L22.4024 20.7136V29.2864Z" fill="black"/>
</svg>
