<svg width="50" height="50" viewBox="0 0 50 50" fill="none" xmlns="http://www.w3.org/2000/svg">
<circle cx="25" cy="25" r="24.5" stroke="#E8E7EA"/>
<path d="M38.7211 19.4001C38.7211 19.4001 38.4477 17.4696 37.6055 16.622C36.5391 15.5063 35.3469 15.5009 34.8 15.4353C30.8844 15.1509 25.0055 15.1509 25.0055 15.1509H24.9945C24.9945 15.1509 19.1156 15.1509 15.2 15.4353C14.6531 15.5009 13.4609 15.5063 12.3945 16.622C11.5523 17.4696 11.2844 19.4001 11.2844 19.4001C11.2844 19.4001 11 21.6696 11 23.9337V26.0556C11 28.3196 11.2789 30.5892 11.2789 30.5892C11.2789 30.5892 11.5523 32.5196 12.3891 33.3673C13.4555 34.4829 14.8555 34.4446 15.4789 34.5649C17.7211 34.7782 25 34.8438 25 34.8438C25 34.8438 30.8844 34.8329 34.8 34.554C35.3469 34.4884 36.5391 34.4829 37.6055 33.3673C38.4477 32.5196 38.7211 30.5892 38.7211 30.5892C38.7211 30.5892 39 28.3251 39 26.0556V23.9337C39 21.6696 38.7211 19.4001 38.7211 19.4001ZM22.107 28.6313V20.7618L29.6703 24.7103L22.107 28.6313Z" fill="white"/>
</svg>
